<?xml version="1.0" encoding="UTF-8"?>
<!DOCTYPE svg PUBLIC "-//W3C//DTD SVG 1.1//EN" "http://www.w3.org/Graphics/SVG/1.1/DTD/svg11.dtd">
<!-- Creator: CorelDRAW 2018 (64-Bit) -->
<svg xmlns="http://www.w3.org/2000/svg" xml:space="preserve" width="48mm" height="56mm" version="1.1" style="shape-rendering:geometricPrecision; text-rendering:geometricPrecision; image-rendering:optimizeQuality; fill-rule:evenodd; clip-rule:evenodd"
viewBox="0 0 4800 5600"
 xmlns:xlink="http://www.w3.org/1999/xlink">
 <defs>
  <style type="text/css">
   <![CDATA[
    .str1 {stroke:#2B2A29;stroke-width:20;stroke-miterlimit:22.9256}
    .str0 {stroke:#1F1B20;stroke-width:10;stroke-miterlimit:22.9256}
    .str3 {stroke:#1F1B20;stroke-width:25;stroke-linejoin:bevel;stroke-miterlimit:22.9256}
    .str2 {stroke:#1F1B20;stroke-width:10;stroke-linejoin:bevel;stroke-miterlimit:22.9256}
    .fil4 {fill:none}
    .fil1 {fill:#86776F}
    .fil3 {fill:#57A7B3}
    .fil2 {fill:#009846}
    .fil0 {fill:#434242;fill-rule:nonzero}
   ]]>
  </style>
 </defs>
 <g id="Слой_x0020_1">
  <metadata id="CorelCorpID_0Corel-Layer"/>
  <path class="fil0" d="M883.85 4305.57c-92.57,96.52 -138.86,207.05 -138.86,331.51 0,14.39 0.57,29.45 1.7,45.25 -29.64,0 -84.2,4.14 -163.69,12.42 -27.56,-24.84 -58.51,-71.5 -92.85,-139.98 -39.32,-78.65 -66.13,-155.41 -80.43,-230.2 -1.79,-10.07 -11.29,-19.1 -28.32,-27 -13.26,-4.99 -26.62,-9.88 -39.98,-14.86l31.89 -40.08c58.33,20.42 109.12,35.37 152.21,44.69 50.42,10.91 102.82,17.21 157.2,19.09 1.97,0 3.01,1.13 3.01,3.3 0,2.91 -2.82,8.74 -8.38,17.4 -7.8,11.85 -12.41,19.57 -13.92,22.86 -4.61,-0.38 -16.74,-2.16 -36.5,-5.27 -16.74,-2.54 -28.31,-3.86 -34.9,-3.86 -7.15,0 -10.72,1.13 -10.72,3.3 -0.38,7.52 -0.57,16.46 -0.57,26.71 0,50.71 7.81,98.12 23.43,142.24 17.68,49.77 43.18,88.43 76.38,115.99 1.88,1.98 4.9,3.01 9.13,3.01 3.48,0 4.8,-1.41 3.86,-4.13 -1.79,-11.76 -2.73,-28.51 -2.73,-50.15 0,-112.22 30.76,-207.05 92.28,-284.38 -7.9,-5.55 -19.56,-11.76 -35.18,-18.63 -12.23,-5.17 -24.55,-10.34 -36.78,-15.52 5.55,-13.17 13.54,-32.83 23.99,-58.98 39.13,28.22 65.56,47.03 79.3,56.35 22.3,15.24 45.06,29.44 68.3,42.61 3.2,1.79 3.48,3.95 1.13,6.31zm285.7 -7.15c0,12.32 -14.12,22.76 -42.43,31.42 -25.03,7.71 -51.46,11.57 -79.4,11.57 -26.15,0 -47.51,-4.89 -64.25,-14.58 -19.29,-11.39 -28.98,-27.75 -28.98,-49.11 0,-27.56 31.8,-41.3 95.39,-41.3 35.28,0 64.44,6.49 87.4,19.57 21.54,12.14 32.27,26.25 32.27,42.43zm2.25 390.68c-37.34,-6.77 -77.04,-10.16 -119.09,-10.16 -40.64,0 -97.46,6.59 -170.46,19.76 2.72,-13.64 5.92,-29.45 9.4,-47.41 29.45,-3.48 48.54,-10.54 57.48,-21.08 8.94,-10.53 16.46,-30.01 22.49,-58.6 5.92,-27.19 8.84,-53.63 8.84,-79.5 0,-27.47 -11.67,-41.2 -35,-41.2 -7.33,0 -14.39,0.85 -20.98,2.45 -10.06,-22.21 -15.14,-38.1 -15.14,-47.61 75.35,-0.56 145.72,-12.98 211.1,-37.25 0.75,0.57 1.13,2.07 1.13,4.71 0,4.04 -0.94,11.38 -2.82,22.01 -11.67,65 -17.5,119.1 -17.5,162.27 0,30.01 3.57,49.58 10.72,58.71 4.42,5.73 10.73,8.56 18.82,8.56 9.12,0 19.56,-2.45 31.32,-7.34 3.39,-1.32 5.27,0.28 5.84,4.7 1.97,15.9 3.29,38.2 3.85,66.98zm430.67 -124.83c0,11.57 -4.7,25.96 -14.02,42.99 -28.5,51.36 -96.7,79.59 -204.51,84.67 -15.62,0.75 -24.84,1.12 -27.57,1.12 -42.71,0 -74.13,-7.33 -94.26,-22.01 -24.83,-18.06 -37.25,-49.39 -37.25,-94.26 0,-47.51 14.11,-104.99 42.33,-172.15 -24.27,1.12 -55.12,5.83 -92.66,14.11 -2.26,0.37 -3.67,-0.85 -4.42,-3.58 -0.38,-1.5 -0.57,-6.49 -0.57,-15.14 0,-24.56 2.54,-44.5 7.44,-59.74 23.42,10.16 53.81,16.18 91.34,18.06 -0.56,-14.96 -2.91,-31.7 -7.15,-50.33 -4.23,-17.87 -6.4,-27.09 -6.4,-27.66 0,-1.59 0.29,-2.63 0.85,-2.91 0.57,-0.28 1.22,-0.38 2.17,-0.38 12.13,0 40.73,-1.79 85.7,-5.45 44.96,-3.58 79.11,-6.87 102.25,-9.79 3.86,-0.37 5.84,-0.37 6.02,0 0,0.94 -6.77,12.51 -20.41,34.72 -15.9,26.05 -27.94,48.73 -36.03,68.01 5.93,0 12.14,0 18.72,0 46.85,-0.38 70.93,-2.54 72.34,-6.49 1.41,-3.95 2.07,-8 2.07,-12.23 0,-12.23 -6.77,-23.42 -20.32,-33.49 33.49,-18.44 56.07,-28.13 67.64,-29.07 3.48,5.83 5.18,14.58 5.18,26.34 0,4.89 -0.29,12.14 -0.85,21.64 -0.57,9.5 -0.85,16.18 -0.85,20.04 0,10.44 3.01,26.05 9.03,46.75 6.02,20.79 12.42,38.1 19.19,52.02 -7.71,3.67 -15.52,7.34 -23.23,10.82 -12.23,5.36 -21.26,8.09 -27.19,8.09 -3.48,0 -5.93,-0.75 -7.43,-2.16 -2.16,-1.51 -7.24,-11.38 -15.15,-29.82 -7.52,-17.12 -15.89,-25.97 -25.3,-26.72 -4.71,-0.38 -33.49,-0.56 -86.27,-0.56 -3.48,2.72 -7.99,20.41 -13.54,52.96 -6.4,36.22 -9.6,69.71 -9.6,100.66 0,65.38 14.68,98.12 44.03,98.12 15.43,0 32.92,-4.24 52.49,-12.7 19.57,-8.47 29.35,-15.71 29.35,-21.83 0,-1.88 -0.94,-3.29 -2.73,-4.42 -11.1,-2.54 -29.72,-9.78 -55.97,-21.54 -24.46,-14.49 -36.69,-34.25 -36.69,-59.27 0,-11.57 6.49,-21.07 19.57,-28.41 13.92,-7.71 33.02,-11.57 57.1,-11.57 17.78,0 38.19,2.35 61.15,7.15 49.57,10.72 74.41,29.16 74.41,55.41zm416.65 -52.4c0,9.41 -0.38,20.41 -1.13,33.11 0,2.17 -0.85,3.01 -2.73,2.45 -31.23,-6.96 -82.41,-16.18 -153.62,-27.75 -63.22,-10.07 -96.24,-15.15 -99.25,-15.15 -4.23,0 -6.3,17.31 -6.3,51.84 0,43.55 9.59,76.01 28.69,97.55 14.49,16.37 33.12,25.02 55.88,26.15 12.89,0.57 24.74,-1.41 35.56,-5.83 4.23,-1.6 6.3,-3.29 6.3,-4.99 0,-1.03 -1.13,-1.97 -3.29,-2.72 -24.08,-4.43 -43.74,-13.36 -59.08,-26.82 -15.24,-13.54 -22.86,-29.63 -22.86,-48.35 0,-11.76 6.68,-21.26 20.04,-28.5 13.26,-7.25 31.42,-10.92 54.47,-10.92 15.8,0 32.55,1.7 50.14,4.99 47.51,9.22 71.21,28.22 71.21,57.1 0,8.09 -2.16,16.37 -6.58,24.84 -12.33,23.14 -27.56,39.7 -45.82,49.57 -26.43,14.4 -66.69,21.55 -120.69,21.55 -62.18,0 -111.76,-22.96 -148.92,-68.96 -31.8,-39.13 -47.69,-83.35 -47.69,-132.64 0,-90.97 74.31,-136.5 223.04,-136.5 86.27,0 139.23,21.54 159.08,64.72 9.03,19.66 13.55,44.78 13.55,75.26zm-105.55 -63.31c0,-10.26 -6.68,-18.63 -20.13,-25.12 -13.46,-6.49 -31.24,-9.78 -53.25,-9.78 -25.78,0 -48.17,2.35 -67.07,7.15 -22.3,5.45 -33.4,12.88 -33.4,22.29 0,23.61 38.01,35.47 113.92,35.47 39.98,0 59.93,-9.97 59.93,-30.01zm548.72 39.98c0,25.68 -23.33,44.59 -69.99,56.63 -27.09,7.15 -51.46,10.73 -73.37,10.73 -39.89,0 -59.84,-10.82 -59.84,-32.55 0,-24.65 10.26,-45.54 30.86,-62.66 16.37,-13.64 37.16,-23.42 62.37,-29.54 2.17,-0.56 3.29,-2.07 3.29,-4.51 0,-4.14 -4.61,-8.47 -13.82,-13.17 -10.45,-5.18 -22.58,-7.72 -36.41,-7.72 -25.02,0 -47.04,6.97 -65.95,20.89 -23.42,17.31 -35.09,41.67 -35.09,73.28 0,26.06 8.09,65.76 24.28,119.19 1.5,4.61 11.1,8.75 28.88,12.42 19.66,3.95 44.4,6.96 74.41,9.03 -2.54,11.57 -5.65,25.5 -9.41,41.77 -7.15,-0.38 -17.69,-0.56 -31.61,-0.56 -84.57,0 -168.11,10.53 -250.61,31.6 -5.46,-8.18 -10.07,-21.16 -13.73,-38.94 -0.38,-1.98 0.65,-3.48 3.01,-4.42 22.01,-9.13 33.2,-13.64 33.49,-13.64 9.78,-5.18 14.86,-11.29 15.42,-18.54 2.45,-19.28 4.8,-38.47 7.15,-57.57 4.24,-37.16 6.4,-65.94 6.4,-86.36 0,-22.11 -2.45,-34.9 -7.43,-38.38 -6.02,-4.61 -14.86,-6.87 -26.44,-6.87 -4.23,0 -11.76,0.94 -22.57,2.73 -2.92,0.56 -4.42,0.19 -4.42,-1.03 0,-2.83 -1.13,-12.8 -3.39,-29.92 -2.35,-17.22 -3.48,-26.81 -3.48,-28.88 0,-2.54 1.6,-3.48 4.7,-2.73 15.62,4.14 31.42,6.21 47.41,6.21 38.86,0 79.5,-14.11 121.74,-42.33 -2.36,14.48 -5.37,33.3 -9.04,56.44 29.45,-27.47 70.28,-41.2 122.68,-41.2 71.12,0 117.96,26.62 140.64,79.96 6.58,16.09 9.87,29.63 9.87,40.64zm692.57 59.64c0,36.13 -11,65.85 -32.92,89.09 -22.02,23.23 -48.73,34.9 -80.34,34.9 -44.69,0 -85.23,-23.14 -121.64,-69.43 -34.15,-43.74 -53.53,-72.53 -58.14,-86.26 -1.31,64.16 -8.46,109.78 -21.54,137.06 -18.34,38.39 -52.68,57.58 -103.1,57.58 -16.75,0 -36.32,-2.17 -58.71,-6.59 -127.18,-25.59 -190.78,-79.96 -190.78,-163.22 0,-58.98 32.18,-127.75 96.52,-206.2 -10.81,4.23 -22.86,6.3 -36.12,6.3 -18.53,0 -36.97,-3.39 -55.32,-10.16l15.15 -74.51c20.98,13.55 49.29,24.37 84.95,32.46 34.71,8.09 70.84,12.13 108.37,12.13 1.98,0 4.99,-0.09 8.94,-0.28 3.95,-0.19 6.96,-0.28 8.93,-0.28 -53.05,97.18 -79.58,179.68 -79.58,247.22 0,27.19 6.02,50.52 17.97,69.81 11,17.4 22.86,26.15 35.56,26.15 20.6,0 37.72,-29.35 51.36,-88.15 14.39,-61.71 21.54,-125.49 21.54,-191.25 0,-42.99 -3.76,-78.17 -11.29,-105.55 40.46,-4.05 99.63,-13.08 177.71,-27.09 1.88,7.62 4.51,18.34 8,32.17 -13.93,3.1 -32.46,8.09 -55.41,14.86 -8.09,11.76 -13.55,41.21 -16.28,88.43 7.72,49.2 22.3,93.23 43.84,132.18 21.73,39.79 42.8,59.73 63.4,59.73 15.81,0 23.71,-15.05 23.71,-45.15 0,-29.35 -6.77,-66.8 -20.41,-112.33 -12.61,-42.42 -25.21,-73.47 -37.73,-93.13 54.75,1.13 102.92,1.69 144.59,1.69 18.73,0 39.42,-0.37 62,-1.12 -6.21,12.51 -12.14,23.04 -17.69,31.7l-78.27 12.89c68.49,65.38 102.73,130.19 102.73,194.35zm419.38 -58.23c0,17.31 -2.06,38.19 -6.3,62.56 -7.43,43.37 -23.52,79.58 -48.54,108.56 -32.36,37.53 -75.45,56.26 -129.26,56.26 -48.91,0 -93.13,-15.62 -132.64,-46.85 -41.67,-33.12 -62.56,-72.72 -62.56,-119.01 0,-36.4 15.62,-70.93 46.85,-103.66 35.47,-37.07 81.66,-59.27 138.38,-66.42 18.25,-2.16 39.23,-3.29 63.12,-3.29 47.79,0 82.04,9.69 102.83,29.16 18.72,17.69 28.12,45.25 28.12,82.69zm-47.41 39.98c0,-14.11 -11.76,-25.21 -35.28,-33.3 -21.35,-7.15 -48.73,-10.73 -82.12,-10.73 -36.78,0 -72.53,10.07 -107.25,30.3 -32.73,19.09 -49.1,37.16 -49.1,54.28 0,11.76 10.44,21.54 31.42,29.44 20.98,7.9 46.38,11.85 76.39,11.85 37.81,0 74.97,-8.93 111.38,-26.71 36.41,-17.78 54.56,-36.13 54.56,-55.13zm444.87 -39.98c0,17.31 -2.06,38.19 -6.3,62.56 -7.43,43.37 -23.52,79.58 -48.54,108.56 -32.36,37.53 -75.45,56.26 -129.26,56.26 -48.91,0 -93.13,-15.62 -132.64,-46.85 -41.67,-33.12 -62.56,-72.72 -62.56,-119.01 0,-36.4 15.62,-70.93 46.85,-103.66 35.47,-37.07 81.66,-59.27 138.38,-66.42 18.25,-2.16 39.23,-3.29 63.12,-3.29 47.79,0 82.04,9.69 102.83,29.16 18.72,17.69 28.12,45.25 28.12,82.69zm-47.41 39.98c0,-14.11 -11.76,-25.21 -35.28,-33.3 -21.35,-7.15 -48.73,-10.73 -82.12,-10.73 -36.78,0 -72.53,10.07 -107.25,30.3 -32.73,19.09 -49.1,37.16 -49.1,54.28 0,11.76 10.44,21.54 31.42,29.44 20.98,7.9 46.38,11.85 76.39,11.85 37.81,0 74.97,-8.93 111.38,-26.71 36.41,-17.78 54.56,-36.13 54.56,-55.13zm495.67 145.63c-9.03,-6.4 -22.57,-9.6 -40.54,-9.6 -43.28,0 -87.68,13.36 -133.3,40.08 9.4,-33.96 14.01,-54.75 14.01,-62.47 0,-3.01 -0.65,-3.76 -2.16,-2.54 -15.8,14.21 -38.01,25.31 -66.7,33.49 -28.69,8.19 -59.36,12.33 -92,12.33 -40.27,0 -69.05,-8.28 -86.55,-24.84 -15.62,-14.86 -23.42,-38.1 -23.42,-69.52 0,-15.05 1.69,-32.93 4.98,-53.53 6.4,-38.57 19.95,-70.55 40.45,-95.95 26.34,-32.36 60.78,-48.54 103.39,-48.54 22.58,0 46.1,5.92 70.56,17.68 22.76,11.01 42.7,25.4 59.73,43.28 0,-0.76 0.19,-2.17 0.47,-4.24 0.28,-2.16 0.38,-3.38 0.38,-3.76 0,-62.28 -26.15,-123.05 -78.46,-182.22 65.19,-9.03 137.82,-20.32 217.69,-33.87 2.73,8.85 4.14,19.1 4.14,30.86 0,8.65 -1.23,14.39 -3.58,17.12 -25.87,8.47 -38.76,18.06 -38.76,28.69 0,1.13 0.1,2.26 0.29,3.29 9.22,46.85 13.82,90.22 13.82,130.39 0,62.18 -11.28,119.47 -33.86,171.68 15.61,-9.31 30.48,-14.01 44.59,-14.01 7.52,0 13.26,0.94 17.12,2.73l7.71 73.47zm-135.46 -145.72c0,-8.09 -9.69,-14.77 -28.98,-20.13 -16.83,-4.61 -35.46,-6.87 -55.69,-6.87 -32.26,0 -63.87,6.11 -94.82,18.44 -30.86,12.32 -46.29,24.74 -46.29,37.25 0,8.84 8.94,16.27 26.72,22.11 18.81,6.11 43.46,9.12 74.22,9.12 28.41,0 56.64,-7.15 84.58,-21.54 26.81,-13.64 40.26,-26.34 40.26,-38.38zm-2358.05 601.22c0,19.37 -6.68,33.49 -19.94,42.23 -13.36,8.75 -35.09,13.08 -65.2,13.08 -36.03,0 -66.41,-6.49 -91.25,-19.57 -23.14,-12.32 -34.71,-26.43 -34.71,-42.42 0,-15.81 7.53,-30.11 22.58,-42.9 15.8,-13.64 34.81,-20.41 57.01,-20.41 3.48,0 8.27,0.09 14.39,0.28 6.02,0.19 9.69,0.28 11.01,0.28l4.42 0c3.85,-1.13 5.74,-2.92 5.74,-5.55 0,-6.4 -6.97,-12.98 -20.98,-19.57 -16.75,-8.09 -37.54,-12.13 -62.56,-12.13 -35.84,0 -65.85,11.57 -89.94,34.71 -28.5,27.19 -42.7,66.23 -42.7,117.12 0,14.39 1.31,30.2 3.85,47.41 11.76,76.86 22.3,128.32 31.71,154.38 11.38,31.8 27.56,47.69 48.54,47.69 31.61,0 47.41,-16.84 47.41,-50.61 0,-15.05 -3.76,-38.57 -11.29,-70.55 -3.1,-12.99 -9.78,-21.17 -20.04,-24.46 -10.81,-1.88 -21.63,-3.67 -32.36,-5.55 -4.04,-0.76 -6.68,-6.31 -7.99,-16.56 -0.76,-8 -0.66,-14.86 0.28,-20.79 3.48,1.79 79.21,3.86 227.19,6.21 -24.84,39.51 -37.26,85.98 -37.26,139.42 0,9.69 0.57,16.74 1.7,21.16 -6.12,7.15 -20.51,15.99 -43.28,26.44 -33.68,15.61 -74.5,28.31 -122.67,38.1 -22.39,4.61 -42.71,6.86 -60.86,6.86 -99.44,0 -149.11,-64.34 -149.11,-193.13 0,-193.7 73.75,-290.59 221.35,-290.59 125.69,0 196.24,36.69 211.67,110.16 2.16,10.82 3.29,20.6 3.29,29.26zm402.54 132.64c0,9.41 -0.38,20.41 -1.13,33.11 0,2.17 -0.85,3.01 -2.73,2.45 -31.23,-6.96 -82.41,-16.18 -153.62,-27.75 -63.22,-10.07 -96.24,-15.15 -99.25,-15.15 -4.23,0 -6.3,17.31 -6.3,51.84 0,43.55 9.59,76.01 28.69,97.55 14.49,16.37 33.12,25.02 55.88,26.15 12.89,0.57 24.74,-1.41 35.56,-5.83 4.23,-1.6 6.3,-3.29 6.3,-4.99 0,-1.03 -1.13,-1.97 -3.29,-2.72 -24.08,-4.43 -43.74,-13.36 -59.08,-26.82 -15.24,-13.54 -22.86,-29.63 -22.86,-48.35 0,-11.76 6.68,-21.26 20.04,-28.5 13.26,-7.25 31.42,-10.92 54.47,-10.92 15.8,0 32.55,1.7 50.14,4.99 47.51,9.22 71.21,28.22 71.21,57.1 0,8.09 -2.16,16.37 -6.58,24.84 -12.33,23.14 -27.56,39.7 -45.82,49.57 -26.43,14.4 -66.69,21.55 -120.69,21.55 -62.18,0 -111.76,-22.96 -148.92,-68.96 -31.8,-39.13 -47.69,-83.35 -47.69,-132.64 0,-90.97 74.31,-136.5 223.04,-136.5 86.27,0 139.23,21.54 159.08,64.72 9.03,19.66 13.55,44.78 13.55,75.26zm-105.55 -63.31c0,-10.26 -6.68,-18.63 -20.13,-25.12 -13.46,-6.49 -31.24,-9.78 -53.25,-9.78 -25.78,0 -48.17,2.35 -67.07,7.15 -22.3,5.45 -33.4,12.88 -33.4,22.29 0,23.61 38.01,35.47 113.92,35.47 39.98,0 59.93,-9.97 59.93,-30.01zm581.46 235.56c-8.65,-6.12 -22.67,-9.13 -42.14,-9.13 -23.62,0 -50.15,3.86 -79.68,11.48 -29.64,7.71 -52.78,16.65 -69.52,26.9 6.39,-30.76 9.59,-51.27 9.59,-61.52 0,-3.1 -0.56,-4.61 -1.69,-4.42 -0.66,0.19 -1.88,0.94 -3.58,2.26 -30.85,25.3 -67.64,40.73 -110.44,46.28 -20.41,2.54 -37.72,3.86 -51.83,3.86 -41.96,0 -71.97,-8.94 -90.13,-26.72 -16.36,-15.99 -24.55,-40.54 -24.55,-73.66 0,-17.21 1.69,-36.22 4.99,-57.01 6.77,-41.2 21.45,-75.16 44.12,-101.97 27.18,-31.8 61.99,-47.7 104.51,-47.7 45.91,0 90.69,21.17 134.25,63.41 0,-9.22 -2.54,-22.2 -7.72,-38.95 -5.74,-17.87 -12.23,-32.45 -19.38,-43.65 90.41,-13.73 152.97,-26.9 187.49,-39.51 3.29,11.57 4.99,23.14 4.99,34.9 0,9.5 -1.13,15.43 -3.3,17.59 -27.09,9.22 -40.73,17.5 -40.73,24.84l0 0.56c0,6.02 0.28,15.62 0.85,28.7 0.56,12.98 0.84,23.04 0.84,30 0,59.08 -7.52,107.72 -22.57,146.19 12.13,-7.52 26.52,-11.28 43.27,-11.28 8.84,0 17.03,1.03 24.65,3.01l7.71 75.54zm-160.3 -154.19c0,-7.81 -7.71,-14.2 -23.14,-19.38 -16.37,-5.55 -37.63,-8.28 -63.88,-8.28 -34.43,0 -67.45,6.4 -99.25,19.29 -30.85,12.79 -46.28,25.59 -46.28,38.47 0,10.26 10.91,18.54 32.83,24.84 19.66,5.55 42.9,8.28 69.9,8.28 30.76,0 60.39,-7.34 89.09,-22.11 27.18,-14.2 40.73,-27.84 40.73,-41.11zm599.43 -41.39c0,25.68 -23.33,44.59 -69.99,56.63 -27.09,7.15 -51.46,10.73 -73.37,10.73 -39.89,0 -59.84,-10.82 -59.84,-32.55 0,-24.65 10.26,-45.54 30.86,-62.66 16.37,-13.64 37.16,-23.42 62.37,-29.54 2.17,-0.56 3.29,-2.07 3.29,-4.51 0,-4.14 -4.61,-8.47 -13.82,-13.17 -10.45,-5.18 -22.58,-7.72 -36.41,-7.72 -25.02,0 -47.04,6.97 -65.95,20.89 -23.42,17.31 -35.09,41.67 -35.09,73.28 0,26.06 8.09,65.76 24.28,119.19 1.5,4.61 11.1,8.75 28.88,12.42 19.66,3.95 44.4,6.96 74.41,9.03 -2.54,11.57 -5.65,25.5 -9.41,41.77 -7.15,-0.38 -17.69,-0.56 -31.61,-0.56 -84.57,0 -168.11,10.53 -250.61,31.6 -5.46,-8.18 -10.07,-21.16 -13.73,-38.94 -0.38,-1.98 0.65,-3.48 3.01,-4.42 22.01,-9.13 33.2,-13.64 33.49,-13.64 9.78,-5.18 14.86,-11.29 15.42,-18.54 2.45,-19.28 4.8,-38.47 7.15,-57.57 4.24,-37.16 6.4,-65.94 6.4,-86.36 0,-22.11 -2.45,-34.9 -7.43,-38.38 -6.02,-4.61 -14.86,-6.87 -26.44,-6.87 -4.23,0 -11.76,0.94 -22.57,2.73 -2.92,0.56 -4.42,0.19 -4.42,-1.03 0,-2.83 -1.13,-12.8 -3.39,-29.92 -2.35,-17.22 -3.48,-26.81 -3.48,-28.88 0,-2.54 1.6,-3.48 4.7,-2.73 15.62,4.14 31.42,6.21 47.41,6.21 38.86,0 79.5,-14.11 121.74,-42.33 -2.36,14.48 -5.37,33.3 -9.04,56.44 29.45,-27.47 70.28,-41.2 122.68,-41.2 71.12,0 117.96,26.62 140.64,79.96 6.58,16.09 9.87,29.63 9.87,40.64z"/>
  <path class="fil1 str0" d="M1722.72 3969.57c362.79,-293.28 884.56,-280.82 1232.93,29.45 73.68,73.33 187.55,87.76 277.19,35.11 89.64,-52.64 132.51,-159.11 104.36,-259.19l-83.52 -296.81c-5.53,-19.67 1.46,-40.73 17.67,-53.19 14.67,-11.28 29.14,-22.81 43.4,-34.61 15.74,-13.02 37.83,-15.16 55.78,-5.38l270.79 147.46c97.49,53.09 219.02,28.52 288.23,-58.26 69.21,-86.79 66.12,-210.74 -7.33,-293.97l-204.03 -231.19c-13.52,-15.32 -16.36,-37.33 -7.16,-55.58 8.32,-16.53 16.35,-33.2 24.08,-50.01 8.54,-18.57 27.52,-30.08 47.93,-29.06l307.95 15.37c110.87,5.54 209.7,-69.33 234.4,-177.55 24.71,-108.22 -31.86,-218.55 -134.15,-261.67l-284.13 -119.77c-18.83,-7.94 -30.93,-26.54 -30.57,-46.97 0.34,-18.5 0.34,-37.01 0,-55.51 -0.36,-20.44 11.74,-39.04 30.57,-46.97l284.13 -119.77c102.29,-43.12 158.86,-153.45 134.16,-261.68 -24.71,-108.22 -123.54,-183.08 -234.41,-177.55l-307.95 15.37c-20.41,1.02 -39.39,-10.49 -47.93,-29.05 -7.73,-16.82 -15.76,-33.49 -24.08,-50.02 -9.2,-18.25 -6.36,-40.26 7.16,-55.58l204.03 -231.19c73.45,-83.23 76.54,-207.18 7.33,-293.96 -69.21,-86.79 -190.74,-111.36 -288.23,-58.27l-270.79 147.47c-17.95,9.77 -40.04,7.64 -55.78,-5.39 -14.26,-11.79 -28.73,-23.33 -43.4,-34.61 -16.21,-12.45 -23.2,-33.51 -17.67,-53.18l83.52 -296.82c30.06,-106.85 -20.93,-219.87 -120.94,-268.03 -100.02,-48.17 -220.17,-17.57 -284.97,72.56l-179.99 250.35c-12.01,16.7 -33.02,24.35 -52.95,19.26l-55.87 -12.75c-19.04,-4.86 -33.47,-20.41 -36.88,-39.77l-53.55 -303.65c-19.27,-109.32 -114.25,-189.02 -225.26,-189.02 -111,0 -205.98,79.7 -225.26,189.02l-53.54 303.65c-3.55,20.13 -18.99,36.07 -38.99,40.26 -18.11,3.79 -36.15,7.91 -54.12,12.35 -19.84,4.91 -40.66,-2.76 -52.59,-19.35l-180 -250.35c-64.79,-90.13 -184.95,-120.73 -284.96,-72.56 -100.01,48.16 -151,161.17 -120.94,268.03l83.51 296.82c5.54,19.67 -1.46,40.73 -17.66,53.18 -14.67,11.28 -29.14,22.82 -43.4,34.61 -15.75,13.03 -37.84,15.16 -55.78,5.39l-270.8 -147.47c-97.48,-53.09 -219.01,-28.52 -288.22,58.27 -69.21,86.78 -66.12,210.73 7.33,293.96l204.02 231.19c13.53,15.32 16.36,37.33 7.17,55.58 -8.33,16.53 -16.36,33.2 -24.09,50.02 -8.53,18.56 -27.51,30.07 -47.92,29.05l-307.96 -15.37c-110.86,-5.53 -209.7,69.33 -234.4,177.55 -24.7,108.22 31.86,218.56 134.15,261.68l284.13 119.77c18.83,7.93 30.94,26.53 30.57,46.97 -0.33,18.5 -0.33,37.01 0,55.51 0.37,20.43 -11.74,39.03 -30.57,46.97l-284.13 119.77c-102.29,43.11 -158.85,153.45 -134.15,261.67 24.7,108.22 123.54,183.09 234.4,177.55l307.96 -15.37c20.41,-1.02 39.39,10.49 47.92,29.06 7.73,16.81 15.76,33.48 24.09,50.01 9.19,18.25 6.36,40.26 -7.17,55.58l-204.02 231.19c-73.45,83.23 -76.54,207.18 -7.33,293.97 69.21,86.78 190.74,111.35 288.22,58.26l270.8 -147.46c17.94,-9.78 40.03,-7.64 55.78,5.38 14.26,11.8 28.73,23.33 43.4,34.61 16.2,12.46 23.2,33.52 17.66,53.19l-83.46 296.63c-31.01,107.22 20.01,221.16 120.66,269.42 100.65,48.26 221.43,16.7 285.62,-74.61zm425.76 -1333.91c-34.84,469.21 -196.1,920.23 -466.67,1305.15 -50.15,71.36 -144.54,95.99 -223.17,58.24 -78.62,-37.74 -118.43,-126.8 -94.12,-210.56l83.51 -296.82c11.07,-39.34 -2.92,-81.46 -35.32,-106.37 -14.2,-10.91 -28.2,-22.08 -42,-33.5 -31.5,-26.05 -75.67,-30.31 -111.57,-10.76l-270.79 147.46c-76.17,41.48 -171.14,22.29 -225.22,-45.53 -54.08,-67.81 -51.67,-164.67 5.73,-229.7l204.02 -231.19c27.05,-30.65 32.72,-74.67 14.33,-111.17 -8.06,-15.99 -15.83,-32.13 -23.31,-48.4 -17.07,-37.13 -55.02,-60.14 -95.84,-58.11l-307.96 15.37c-86.63,4.33 -163.86,-54.17 -183.16,-138.74 -19.3,-84.56 24.9,-170.78 104.82,-204.47l284.13 -119.77c37.66,-15.88 61.88,-53.07 61.14,-93.94 -0.32,-17.9 -0.32,-35.81 0,-53.72 0.74,-40.86 -23.47,-78.06 -61.14,-93.94l-284.13 -119.77c-79.92,-33.69 -124.12,-119.91 -104.82,-204.47 19.3,-84.56 96.53,-143.06 183.16,-138.74l307.96 15.37c40.82,2.04 78.77,-20.97 95.84,-58.11 7.48,-16.27 15.25,-32.41 23.31,-48.4 18.39,-36.5 12.72,-80.52 -14.33,-111.16l-204.02 -231.19c-57.4,-65.04 -59.81,-161.89 -5.73,-229.71 54.08,-67.81 149.05,-87.01 225.22,-45.53l270.79 147.47c35.9,19.54 80.07,15.28 111.57,-10.77 13.8,-11.41 27.8,-22.58 42,-33.49 32.4,-24.91 46.39,-67.03 35.32,-106.38l-83.51 -296.81c-23.49,-83.5 16.36,-171.81 94.51,-209.45 78.14,-37.63 172.03,-13.72 222.67,56.7l179.99 250.36c23.86,33.18 65.51,48.51 105.19,38.7 17.38,-4.3 34.84,-8.28 52.37,-11.95 40.01,-8.38 70.88,-40.26 77.98,-80.51l53.54 -303.66c15.06,-85.42 89.28,-147.7 176.02,-147.7 86.74,0 160.96,62.28 176.02,147.7l53.55 303.66c6.87,38.96 36.07,70.22 74.48,79.71l55.87 12.75c39.68,9.81 81.33,-5.52 105.19,-38.7l179.99 -250.36c50.63,-70.42 144.52,-94.33 222.67,-56.7 78.15,37.64 118,125.95 94.5,209.45l-83.51 296.81c-11.07,39.35 2.92,81.47 35.33,106.38 14.2,10.91 28.2,22.08 42,33.49 31.49,26.05 75.67,30.31 111.56,10.77l270.79 -147.47c76.18,-41.48 171.15,-22.28 225.23,45.53 54.08,67.82 51.66,164.67 -5.73,229.71l-204.03 231.19c-27.04,30.64 -32.71,74.66 -14.32,111.16 8.05,15.99 15.82,32.13 23.3,48.4 17.08,37.14 55.03,60.15 95.85,58.11l307.96 -15.37c86.63,-4.32 163.86,54.18 183.16,138.74 19.3,84.56 -24.9,170.78 -104.83,204.47l-284.13 119.77c-37.66,15.88 -61.87,53.08 -61.14,93.95 0.32,17.9 0.32,35.81 0,53.71 -0.73,40.87 23.48,78.06 61.14,93.94l284.13 119.77c79.93,33.69 124.13,119.91 104.83,204.47 -19.3,84.57 -96.53,143.07 -183.16,138.74l-307.96 -15.37c-40.82,-2.03 -78.77,20.98 -95.85,58.11 -7.48,16.27 -15.25,32.41 -23.3,48.4 -18.39,36.5 -12.72,80.52 14.32,111.17l204.03 231.19c57.39,65.03 59.81,161.89 5.73,229.7 -54.09,67.82 -149.05,87.01 -225.23,45.53l-270.79 -147.46c-35.89,-19.55 -80.07,-15.29 -111.56,10.76 -13.8,11.42 -27.8,22.59 -42,33.5 -32.41,24.9 -46.4,67.03 -35.33,106.37l83.52 296.82c21.86,77.71 -11.09,160.44 -80.39,201.84 -69.31,41.41 -157.77,31.21 -215.84,-24.87 -252.61,-316.97 -418.49,-694.15 -481.39,-1094.55 47.1,-87.21 105.42,-165.99 172.61,-234.98 95.44,-98 208.78,-176.22 333.25,-230.71 136.71,-59.85 286.85,-91.07 441.46,-88.43 -107.59,-15.74 -214.92,-13.02 -318.12,6.36 -136.66,25.67 -266.08,80.56 -379.28,160.48 -104.1,73.5 -194.48,168.17 -264.15,280.77 -11.36,-102.93 -15.86,-206.51 -13.49,-310.05 1.05,-45.84 1.27,-91.69 0.66,-137.56 -0.58,-43.43 -1.91,-86.85 -3.99,-130.24 0.36,-0.8 0.71,-1.61 1.07,-2.41 46.23,-103.69 116.02,-193.83 202.61,-264 57.81,-46.85 123.12,-84.8 193.9,-111.93 176.79,-67.76 373.26,-62.53 546.19,14.56 -137.49,-81.38 -298.36,-112.01 -454.91,-87.95 -22.22,3.42 -44.36,7.94 -66.33,13.57 -87.27,22.37 -168.38,61.41 -239.32,114.1 -72.74,54.02 -134.8,122.39 -181.85,201.88 -2.75,4.64 -5.44,9.33 -8.09,14.04 -13.1,-171.13 -37.83,-341.17 -74.01,-508.94 14.25,-84.85 43.34,-164.87 84.71,-237.11 32.32,-56.42 72.14,-108.11 118.25,-153.64 78.37,-77.4 174.89,-137.04 283.63,-172.03 -93.41,23.54 -179.85,64.72 -255.41,120.07 -64.52,47.25 -121.11,104.83 -167.36,170.55 -35.99,51.15 -65.71,107.23 -88.02,167.22 -49.19,-200.26 -114.65,-396.16 -195.74,-585.75 -14.21,111.7 -25.56,223.74 -34.05,336.02 -29.31,-57.2 -66.99,-108.88 -111.33,-153.64 -54.37,-54.88 -118.74,-99.35 -189.92,-130.81 -27,-11.93 -54.98,-21.99 -83.76,-30.04 45.77,21.61 89.29,47.12 130.14,76.15 52.57,37.35 100.72,80.51 143.54,128.63 41.32,46.44 77.67,97.49 108.24,152.4 -13.72,198.54 -18.48,397.59 -14.28,596.56 -50.03,-87.54 -114.43,-163.78 -189.22,-226.48 -106.58,-89.38 -234.26,-151.27 -371.48,-179.26 -63.95,-13.04 -129.97,-18.71 -196.89,-16.38 98.02,12.09 192.78,37.67 281.92,75.26 110.54,46.62 212.44,111.72 301.25,192.52 66.57,60.56 125.77,129.93 175.74,206.95 3.21,110.26 9.17,220.42 17.88,330.39 8.55,107.94 10.36,216.3 5.43,324.45 -47.16,-77.69 -106.49,-144.34 -174.3,-198.62 -65.09,-52.1 -138,-92.8 -215.48,-120.93 -110.66,-40.17 -230.64,-54.68 -350.45,-40.09 -51.47,6.26 -102.9,17.9 -153.56,35.18 75.03,-7.77 149.72,-6.72 222.76,2.56 182.61,23.18 354.96,97.8 496.7,214.73 63.34,52.26 120.58,112.98 169.88,181.33z"/>
  <path class="fil2 str1" d="M988.35 3488.5l270.79 -147.46c35.9,-19.55 80.07,-15.29 111.57,10.76 13.8,11.42 27.8,22.59 42,33.5 32.4,24.91 46.39,67.03 35.32,106.37l-83.51 296.82c-24.31,83.76 15.5,172.82 94.12,210.56 78.63,37.75 173.02,13.12 223.17,-58.24 270.57,-384.92 431.83,-835.94 466.67,-1305.15 -49.3,-68.35 -106.54,-129.07 -169.88,-181.33 -141.74,-116.93 -314.09,-191.55 -496.7,-214.73 -73.04,-9.28 -147.73,-10.33 -222.76,-2.56 50.66,-17.28 102.09,-28.92 153.56,-35.18 119.81,-14.59 239.79,-0.08 350.45,40.09 77.48,28.13 150.39,68.83 215.48,120.93 67.81,54.28 127.14,120.93 174.3,198.62 4.93,-108.15 3.12,-216.51 -5.43,-324.45 -8.71,-109.97 -14.67,-220.13 -17.88,-330.39 -49.97,-77.02 -109.17,-146.39 -175.74,-206.95 -88.81,-80.8 -190.71,-145.9 -301.25,-192.52 -89.14,-37.59 -183.9,-63.17 -281.92,-75.26 66.92,-2.33 132.94,3.34 196.89,16.38 137.22,27.99 264.9,89.88 371.48,179.26 74.79,62.7 139.19,138.94 189.22,226.48 -4.2,-198.97 0.56,-398.02 14.28,-596.56 -30.57,-54.91 -66.92,-105.96 -108.24,-152.4 -42.82,-48.12 -90.97,-91.28 -143.54,-128.63 -40.85,-29.03 -84.37,-54.54 -130.14,-76.15 28.78,8.05 56.76,18.11 83.76,30.04 71.18,31.46 135.55,75.93 189.92,130.81 44.34,44.76 82.02,96.44 111.33,153.64 8.49,-112.28 19.84,-224.32 34.05,-336.02 81.09,189.59 146.55,385.49 195.74,585.75 22.31,-59.99 52.03,-116.07 88.02,-167.22 46.25,-65.72 102.84,-123.3 167.36,-170.55 75.56,-55.35 162,-96.53 255.41,-120.07 -108.74,34.99 -205.26,94.63 -283.63,172.03 -46.11,45.53 -85.93,97.22 -118.25,153.64 -41.37,72.24 -70.46,152.26 -84.71,237.11 36.18,167.77 60.91,337.81 74.01,508.94 2.65,-4.71 5.34,-9.4 8.09,-14.04 47.05,-79.49 109.11,-147.86 181.85,-201.88 70.94,-52.69 152.05,-91.73 239.32,-114.1 21.97,-5.63 44.11,-10.15 66.33,-13.57 156.55,-24.06 317.42,6.57 454.91,87.95 -172.93,-77.09 -369.4,-82.32 -546.19,-14.56 -70.78,27.13 -136.09,65.08 -193.9,111.93 -86.59,70.17 -156.38,160.31 -202.61,264 -0.36,0.8 -0.71,1.61 -1.07,2.41 2.08,43.39 3.41,86.81 3.99,130.24 0.61,45.87 0.39,91.72 -0.66,137.56 -2.37,103.54 2.13,207.12 13.49,310.05 69.67,-112.6 160.05,-207.27 264.15,-280.77 113.2,-79.92 242.62,-134.81 379.28,-160.48 103.2,-19.38 210.53,-22.1 318.12,-6.36 -154.61,-2.64 -304.75,28.58 -441.46,88.43 -124.47,54.49 -237.81,132.71 -333.25,230.71 -67.19,68.99 -125.51,147.77 -172.61,234.98 62.9,400.4 228.78,777.58 481.39,1094.55 58.07,56.08 146.53,66.28 215.84,24.87 69.3,-41.4 102.25,-124.13 80.39,-201.84l-83.52 -296.82c-11.07,-39.34 2.92,-81.47 35.33,-106.37 14.2,-10.91 28.2,-22.08 42,-33.5 31.49,-26.05 75.67,-30.31 111.56,-10.76l270.79 147.46c76.18,41.48 171.14,22.29 225.23,-45.53 54.08,-67.81 51.66,-164.67 -5.73,-229.7l-204.03 -231.19c-27.04,-30.65 -32.71,-74.67 -14.32,-111.17 8.05,-15.99 15.82,-32.13 23.3,-48.4 17.08,-37.13 55.03,-60.14 95.85,-58.11l307.96 15.37c86.63,4.33 163.86,-54.17 183.16,-138.74 19.3,-84.56 -24.9,-170.78 -104.83,-204.47l-284.13 -119.77c-37.66,-15.88 -61.87,-53.07 -61.14,-93.94 0.32,-17.9 0.32,-35.81 0,-53.71 -0.73,-40.87 23.48,-78.07 61.14,-93.95l284.13 -119.77c79.93,-33.69 124.13,-119.91 104.83,-204.47 -19.3,-84.56 -96.53,-143.06 -183.16,-138.74l-307.96 15.37c-40.82,2.04 -78.77,-20.97 -95.85,-58.11 -7.48,-16.27 -15.25,-32.41 -23.3,-48.4 -18.39,-36.5 -12.72,-80.52 14.32,-111.16l204.03 -231.19c57.39,-65.04 59.81,-161.89 5.73,-229.71 -54.08,-67.81 -149.05,-87.01 -225.23,-45.53l-270.79 147.47c-35.89,19.54 -80.07,15.28 -111.56,-10.77 -13.8,-11.41 -27.8,-22.58 -42,-33.49 -32.41,-24.91 -46.4,-67.03 -35.33,-106.38l83.51 -296.81c23.5,-83.5 -16.35,-171.81 -94.5,-209.45 -78.15,-37.63 -172.04,-13.72 -222.67,56.7l-179.99 250.36c-23.86,33.18 -65.51,48.51 -105.19,38.7l-55.87 -12.75c-38.41,-9.49 -67.61,-40.75 -74.48,-79.71l-53.55 -303.66c-15.06,-85.42 -89.28,-147.7 -176.02,-147.7 -86.74,0 -160.96,62.28 -176.02,147.7l-53.54 303.66c-7.1,40.25 -37.97,72.13 -77.98,80.51 -17.53,3.67 -34.99,7.65 -52.37,11.95 -39.68,9.81 -81.33,-5.52 -105.19,-38.7l-179.99 -250.36c-50.64,-70.42 -144.53,-94.33 -222.67,-56.7 -78.15,37.64 -118,125.95 -94.51,209.45l83.51 296.81c11.07,39.35 -2.92,81.47 -35.32,106.38 -14.2,10.91 -28.2,22.08 -42,33.49 -31.5,26.05 -75.67,30.31 -111.57,10.77l-270.79 -147.47c-76.17,-41.48 -171.14,-22.28 -225.22,45.53 -54.08,67.82 -51.67,164.67 5.73,229.71l204.02 231.19c27.05,30.64 32.72,74.66 14.33,111.16 -8.06,15.99 -15.83,32.13 -23.31,48.4 -17.07,37.14 -55.02,60.15 -95.84,58.11l-307.96 -15.37c-86.63,-4.32 -163.86,54.18 -183.16,138.74 -19.3,84.56 24.9,170.78 104.82,204.47l284.13 119.77c37.67,15.88 61.88,53.08 61.14,93.94 -0.32,17.91 -0.32,35.82 0,53.72 0.74,40.87 -23.48,78.06 -61.14,93.94l-284.13 119.77c-79.92,33.69 -124.12,119.91 -104.82,204.47 19.3,84.57 96.53,143.07 183.16,138.74l307.96 -15.37c40.82,-2.03 78.77,20.98 95.84,58.11 7.48,16.27 15.25,32.41 23.31,48.4 18.39,36.5 12.72,80.52 -14.33,111.17l-204.02 231.19c-57.4,65.03 -59.81,161.89 -5.73,229.7 54.08,67.82 149.05,87.01 225.22,45.53z"/>
  <path class="fil3 str1" d="M3282.88 3351.8c31.49,-26.05 75.67,-30.31 111.56,-10.76l270.79 147.46c76.18,41.48 171.14,22.29 225.23,-45.53 54.08,-67.81 51.66,-164.67 -5.73,-229.7l-204.03 -231.19c-27.04,-30.65 -32.71,-74.67 -14.32,-111.17 8.05,-15.99 15.82,-32.13 23.3,-48.4 17.08,-37.13 55.03,-60.14 95.85,-58.11l307.96 15.37c86.63,4.33 163.86,-54.17 183.16,-138.74 19.3,-84.56 -24.9,-170.78 -104.83,-204.47l-284.13 -119.77c-37.66,-15.88 -61.87,-53.07 -61.14,-93.94 0.32,-17.9 0.32,-35.81 0,-53.71 -0.73,-40.87 23.48,-78.07 61.14,-93.95l284.13 -119.77c79.93,-33.69 124.13,-119.91 104.83,-204.47 -19.3,-84.56 -96.53,-143.06 -183.16,-138.74l-307.96 15.37c-40.82,2.04 -78.77,-20.97 -95.85,-58.11 -7.48,-16.27 -15.25,-32.41 -23.3,-48.4 -18.39,-36.5 -12.72,-80.52 14.32,-111.16l204.03 -231.19c57.39,-65.04 59.81,-161.89 5.73,-229.71 -54.08,-67.81 -149.05,-87.01 -225.23,-45.53l-270.79 147.47c-35.89,19.54 -80.07,15.28 -111.56,-10.77 -13.8,-11.41 -27.8,-22.58 -42,-33.49 -32.41,-24.91 -46.4,-67.03 -35.33,-106.38l83.51 -296.81c23.5,-83.5 -16.35,-171.81 -94.5,-209.45 -78.15,-37.63 -172.04,-13.72 -222.67,56.7l-179.99 250.36c-23.86,33.18 -65.51,48.51 -105.19,38.7l-55.87 -12.75c-38.41,-9.49 -67.61,-40.75 -74.48,-79.71l-53.55 -303.66c-15.06,-85.42 -89.28,-147.7 -176.02,-147.7 -86.74,0 -160.96,62.28 -176.02,147.7l-53.54 303.66c-7.1,40.25 -37.97,72.13 -77.98,80.51 -17.53,3.67 -34.99,7.65 -52.37,11.95 -39.68,9.81 -81.33,-5.52 -105.19,-38.7l-179.99 -250.36c-50.64,-70.42 -144.53,-94.33 -222.67,-56.7 -78.15,37.64 -118,125.95 -94.51,209.45l83.51 296.81c11.07,39.35 -2.92,81.47 -35.32,106.38 -14.2,10.91 -28.2,22.08 -42,33.49 -31.5,26.05 -75.67,30.31 -111.57,10.77l-270.79 -147.47c-76.17,-41.48 -171.14,-22.28 -225.22,45.53 -54.08,67.82 -51.67,164.67 5.73,229.71l204.02 231.19c27.05,30.64 32.72,74.66 14.33,111.16 -8.06,15.99 -15.83,32.13 -23.31,48.4 -17.07,37.14 -55.02,60.15 -95.84,58.11l-307.96 -15.37c-86.63,-4.32 -163.86,54.18 -183.16,138.74 -19.3,84.56 24.9,170.78 104.82,204.47l284.13 119.77c37.67,15.88 61.88,53.08 61.14,93.94 -0.32,17.91 -0.32,35.82 0,53.72 0.74,40.87 -23.48,78.06 -61.14,93.94l-284.13 119.77c-79.92,33.69 -124.12,119.91 -104.82,204.47 19.3,84.57 96.53,143.07 183.16,138.74l307.96 -15.37c40.82,-2.03 78.77,20.98 95.84,58.11 7.48,16.27 15.25,32.41 23.31,48.4 18.39,36.5 12.72,80.52 -14.33,111.17l-204.02 231.19c-57.4,65.03 -59.81,161.89 -5.73,229.7 54.08,67.82 149.05,87.01 225.22,45.53l270.79 -147.46c35.9,-19.55 80.07,-15.29 111.57,10.76 13.8,11.42 27.8,22.59 42,33.5 32.4,24.91 46.39,67.03 35.32,106.37l-83.51 296.82c-24.31,83.76 15.5,172.82 94.12,210.56 78.63,37.75 173.02,13.12 223.17,-58.24 270.57,-384.92 431.83,-835.94 466.67,-1305.15 -49.3,-68.35 -106.54,-129.07 -169.88,-181.33 -141.74,-116.93 -314.09,-191.55 -496.7,-214.73 -73.04,-9.28 -147.73,-10.33 -222.76,-2.56 50.66,-17.28 102.09,-28.92 153.56,-35.18 119.81,-14.59 239.79,-0.08 350.45,40.09 77.48,28.13 150.39,68.83 215.48,120.93 67.81,54.28 127.14,120.93 174.3,198.62 4.93,-108.15 3.12,-216.51 -5.43,-324.45 -8.71,-109.97 -14.67,-220.13 -17.88,-330.39 -49.97,-77.02 -109.17,-146.39 -175.74,-206.95 -88.81,-80.8 -190.71,-145.9 -301.25,-192.52 -89.14,-37.59 -183.9,-63.17 -281.92,-75.26 66.92,-2.33 132.94,3.34 196.89,16.38 137.22,27.99 264.9,89.88 371.48,179.26 74.79,62.7 139.19,138.94 189.22,226.48 -4.2,-198.97 0.56,-398.02 14.28,-596.56 -30.57,-54.91 -66.92,-105.96 -108.24,-152.4 -42.82,-48.12 -90.97,-91.28 -143.54,-128.63 -40.85,-29.03 -84.37,-54.54 -130.14,-76.15 28.78,8.05 56.76,18.11 83.76,30.04 71.18,31.46 135.55,75.93 189.92,130.81 44.34,44.76 82.02,96.44 111.33,153.64 8.49,-112.28 19.84,-224.32 34.05,-336.02 81.09,189.59 146.55,385.49 195.74,585.75 22.31,-59.99 52.03,-116.07 88.02,-167.22 46.25,-65.72 102.84,-123.3 167.36,-170.55 75.56,-55.35 162,-96.53 255.41,-120.07 -108.74,34.99 -205.26,94.63 -283.63,172.03 -46.11,45.53 -85.93,97.22 -118.25,153.64 -41.37,72.24 -70.46,152.26 -84.71,237.11 36.18,167.77 60.91,337.81 74.01,508.94 2.65,-4.71 5.34,-9.4 8.09,-14.04 47.05,-79.49 109.11,-147.86 181.85,-201.88 70.94,-52.69 152.05,-91.73 239.32,-114.1 21.97,-5.63 44.11,-10.15 66.33,-13.57 156.55,-24.06 317.42,6.57 454.91,87.95 -172.93,-77.09 -369.4,-82.32 -546.19,-14.56 -70.78,27.13 -136.09,65.08 -193.9,111.93 -86.59,70.17 -156.38,160.31 -202.61,264 -0.36,0.8 -0.71,1.61 -1.07,2.41 2.08,43.39 3.41,86.81 3.99,130.24 0.61,45.87 0.39,91.72 -0.66,137.56 -2.37,103.54 2.13,207.12 13.49,310.05 69.67,-112.6 160.05,-207.27 264.15,-280.77 113.2,-79.92 242.62,-134.81 379.28,-160.48 103.2,-19.38 210.53,-22.1 318.12,-6.36 -154.61,-2.64 -304.75,28.58 -441.46,88.43 -124.47,54.49 -237.81,132.71 -333.25,230.71 -67.19,68.99 -125.51,147.77 -172.61,234.98 62.9,400.4 228.78,777.58 481.39,1094.55 58.07,56.08 146.53,66.28 215.84,24.87 69.3,-41.4 102.25,-124.13 80.38,-201.84l-83.51 -296.82c-11.07,-39.34 2.92,-81.47 35.33,-106.37 14.2,-10.91 28.2,-22.08 42,-33.5z"/>
 </g>
 <g id="_0">
  <metadata id="CorelCorpID_1Corel-Layer"/>
  <line class="fil4 str2" x1="2971.89" y1="450.75" x2="2791.9" y2= "701.11" />
  <line class="fil4 str2" x1="2150.77" y1="343.69" x2="2097.23" y2= "647.35" />
  <line class="fil4 str2" x1="3289.06" y1="603.5" x2="3205.55" y2= "900.31" />
  <line class="fil4 str2" x1="3665.23" y1="903.48" x2="3394.44" y2= "1050.95" />
  <line class="fil4 str2" x1="3884.73" y1="1178.72" x2="3680.7" y2= "1409.91" />
  <line class="fil4 str2" x1="4093.49" y1="1612.21" x2="3785.53" y2= "1627.58" />
  <line class="fil4 str2" x1="2502.81" y1="343.69" x2="2556.36" y2= "647.35" />
  <line class="fil4 str2" x1="4171.82" y1="1955.42" x2="3887.69" y2= "2075.19" />
  <line class="fil4 str2" x1="4171.82" y1="2436.56" x2="3887.69" y2= "2316.79" />
  <line class="fil4 str2" x1="4093.49" y1="2779.77" x2="3785.53" y2= "2764.4" />
  <line class="fil4 str2" x1="3884.73" y1="3213.27" x2="3680.7" y2= "2982.08" />
  <line class="fil4 str2" x1="3665.23" y1="3488.5" x2="3394.44" y2= "3341.04" />
  <line class="fil4 str2" x1="3289.06" y1="3788.49" x2="3205.55" y2= "3491.67" />
  <line class="fil4 str2" x1="1364.52" y1="3788.49" x2="1448.03" y2= "3491.67" />
  <line class="fil4 str2" x1="988.35" y1="3488.5" x2="1259.14" y2= "3341.04" />
  <line class="fil4 str2" x1="768.86" y1="3213.27" x2="972.88" y2= "2982.08" />
  <line class="fil4 str2" x1="560.1" y1="2779.77" x2="868.06" y2= "2764.4" />
  <line class="fil4 str2" x1="481.76" y1="2436.56" x2="765.89" y2= "2316.79" />
  <line class="fil4 str2" x1="481.76" y1="1955.42" x2="765.89" y2= "2075.19" />
  <line class="fil4 str2" x1="560.1" y1="1612.21" x2="868.06" y2= "1627.58" />
  <line class="fil4 str2" x1="768.86" y1="1178.72" x2="972.88" y2= "1409.91" />
  <line class="fil4 str2" x1="988.35" y1="903.48" x2="1259.14" y2= "1050.95" />
  <line class="fil4 str2" x1="1364.52" y1="603.5" x2="1448.03" y2= "900.31" />
  <line class="fil4 str2" x1="1681.7" y1="450.75" x2="1861.69" y2= "701.11" />
  <line class="fil4 str2" x1="2630.84" y1="727.06" x2="2686.71" y2= "739.81" />
  <line class="fil4 str2" x1="3337.2" y1="3774.94" x2="3253.68" y2= "3478.13" />
  <line class="fil4 str2" x1="3641.32" y1="3532.41" x2="3370.53" y2= "3384.95" />
  <line class="fil4 str2" x1="3922.22" y1="3180.18" x2="3718.19" y2= "2948.99" />
  <line class="fil4 str2" x1="4090.99" y1="2829.71" x2="3783.04" y2= "2814.34" />
  <line class="fil4 str2" x1="4191.24" y1="2390.49" x2="3907.11" y2= "2270.72" />
  <line class="fil4 str2" x1="4191.24" y1="2001.5" x2="3907.11" y2= "2121.27" />
  <line class="fil4 str2" x1="4090.99" y1="1562.27" x2="3783.04" y2= "1577.64" />
  <line class="fil4 str2" x1="3922.22" y1="1211.8" x2="3718.19" y2= "1442.99" />
  <line class="fil4 str2" x1="3641.32" y1="859.57" x2="3370.53" y2= "1007.04" />
  <line class="fil4 str2" x1="3337.2" y1="617.04" x2="3253.68" y2= "913.86" />
  <line class="fil4 str2" x1="2931.29" y1="421.57" x2="2751.3" y2= "671.92" />
  <line class="fil4 str2" x1="2642.48" y1="678.43" x2="2698.35" y2= "691.18" />
  <line class="fil4 str2" x1="2552.05" y1="335.01" x2="2605.6" y2= "638.66" />
  <line class="fil4 str2" x1="2101.53" y1="335.01" x2="2047.99" y2= "638.66" />
  <line class="fil4 str2" x1="1722.29" y1="421.57" x2="1902.29" y2= "671.92" />
  <line class="fil4 str2" x1="1316.39" y1="617.04" x2="1399.9" y2= "913.86" />
  <line class="fil4 str2" x1="1012.26" y1="859.57" x2="1283.06" y2= "1007.04" />
  <line class="fil4 str2" x1="731.37" y1="1211.8" x2="935.39" y2= "1442.99" />
  <line class="fil4 str2" x1="562.59" y1="1562.27" x2="870.55" y2= "1577.64" />
  <line class="fil4 str2" x1="462.34" y1="2001.5" x2="746.47" y2= "2121.27" />
  <line class="fil4 str2" x1="462.34" y1="2390.49" x2="746.47" y2= "2270.72" />
  <line class="fil4 str2" x1="562.59" y1="2829.71" x2="870.55" y2= "2814.34" />
  <line class="fil4 str2" x1="731.37" y1="3180.18" x2="935.39" y2= "2948.99" />
  <line class="fil4 str2" x1="1012.26" y1="3532.41" x2="1283.06" y2= "3384.95" />
  <line class="fil4 str2" x1="1316.44" y1="3774.76" x2="1399.9" y2= "3478.13" />
  <path class="fil4 str2" d="M1364.52 3788.49c-24.31,83.76 15.5,172.82 94.12,210.56 78.63,37.75 173.02,13.12 223.17,-58.24"/>
  <path class="fil4 str2" d="M2955.65 3999.02c-348.37,-310.27 -870.14,-322.73 -1232.93,-29.45"/>
  <path class="fil4 str2" d="M2955.65 3999.02c73.68,73.33 187.55,87.76 277.19,35.11 89.64,-52.64 132.51,-159.11 104.36,-259.19"/>
  <path class="fil4 str2" d="M3271.35 3424.94c-16.21,12.46 -23.2,33.52 -17.67,53.19"/>
  <path class="fil4 str2" d="M3271.35 3424.94c14.67,-11.28 29.14,-22.81 43.4,-34.61"/>
  <path class="fil4 str2" d="M3370.53 3384.95c-17.95,-9.78 -40.04,-7.64 -55.78,5.38"/>
  <path class="fil4 str2" d="M3641.32 3532.41c97.49,53.09 219.02,28.52 288.23,-58.26 69.21,-86.79 66.12,-210.74 -7.33,-293.97"/>
  <path class="fil4 str2" d="M3711.03 2893.41c-9.2,18.25 -6.36,40.26 7.16,55.58"/>
  <path class="fil4 str2" d="M3711.03 2893.41c8.32,-16.53 16.35,-33.2 24.08,-50.01"/>
  <path class="fil4 str2" d="M3783.04 2814.34c-20.41,-1.02 -39.39,10.49 -47.93,29.06"/>
  <path class="fil4 str2" d="M4090.99 2829.71c110.87,5.54 209.7,-69.33 234.4,-177.55 24.71,-108.22 -31.86,-218.55 -134.15,-261.67"/>
  <path class="fil4 str2" d="M3876.54 2223.75c-0.36,20.43 11.74,39.03 30.57,46.97"/>
  <path class="fil4 str2" d="M3876.54 2223.75c0.34,-18.5 0.34,-37.01 0,-55.51"/>
  <path class="fil4 str2" d="M3907.11 2121.27c-18.83,7.93 -30.93,26.53 -30.57,46.97"/>
  <path class="fil4 str2" d="M4191.24 2001.5c102.29,-43.12 158.86,-153.45 134.16,-261.68 -24.71,-108.22 -123.54,-183.08 -234.41,-177.55"/>
  <path class="fil4 str2" d="M3735.11 1548.59c8.54,18.56 27.52,30.07 47.93,29.05"/>
  <path class="fil4 str2" d="M3735.11 1548.59c-7.73,-16.82 -15.76,-33.49 -24.08,-50.02"/>
  <path class="fil4 str2" d="M3718.19 1442.99c-13.52,15.32 -16.36,37.33 -7.16,55.58"/>
  <path class="fil4 str2" d="M3922.22 1211.8c73.45,-83.23 76.54,-207.18 7.33,-293.96 -69.21,-86.79 -190.74,-111.36 -288.23,-58.27"/>
  <path class="fil4 str2" d="M3314.75 1001.65c15.74,13.03 37.83,15.16 55.78,5.39"/>
  <path class="fil4 str2" d="M3314.75 1001.65c-14.26,-11.79 -28.73,-23.33 -43.4,-34.61"/>
  <path class="fil4 str2" d="M3253.68 913.86c-5.53,19.67 1.46,40.73 17.67,53.18"/>
  <path class="fil4 str2" d="M3337.2 617.04c30.06,-106.85 -20.93,-219.87 -120.94,-268.03 -100.02,-48.17 -220.17,-17.57 -284.97,72.56"/>
  <path class="fil4 str2" d="M2698.35 691.18c19.93,5.09 40.94,-2.56 52.95,-19.26"/>
  <path class="fil4 str2" d="M2605.6 638.66c3.41,19.36 17.84,34.91 36.88,39.77"/>
  <path class="fil4 str2" d="M2552.05 335.01c-19.27,-109.32 -114.25,-189.02 -225.26,-189.02 -111,0 -205.98,79.7 -225.26,189.02"/>
  <path class="fil4 str2" d="M2009 678.92c20,-4.19 35.44,-20.13 38.99,-40.26"/>
  <path class="fil4 str2" d="M2009 678.92c-18.11,3.79 -36.15,7.91 -54.12,12.35"/>
  <path class="fil4 str2" d="M1902.29 671.92c11.93,16.59 32.75,24.26 52.59,19.35"/>
  <path class="fil4 str2" d="M1722.29 421.57c-64.79,-90.13 -184.95,-120.73 -284.96,-72.56 -100.01,48.16 -151,161.17 -120.94,268.03"/>
  <path class="fil4 str2" d="M2481.47 2184.14c-0.36,0.8 -0.71,1.61 -1.07,2.41"/>
  <path class="fil4 str2" d="M2481.76 2064.37c-2.75,4.64 -5.44,9.33 -8.09,14.04"/>
  <path class="fil4 str2" d="M2473.67 2078.41c-13.1,-171.13 -37.83,-341.17 -74.01,-508.94"/>
  <path class="fil4 str2" d="M3458.77 2316.79c-381.08,-55.76 -758.89,120.11 -961.55,447.61"/>
  <path class="fil4 str2" d="M3458.77 2316.79c-394.49,-6.74 -759.84,206.97 -947.32,554.12"/>
  <path class="fil4 str3" d="M3140.5 2764.4c-123.82,-111.58 -292.58,-159.08 -456.42,-128.45"/>
  <path class="fil4 str2" d="M2019.25 727.86c-17.53,3.67 -34.99,7.65 -52.37,11.95"/>
  <path class="fil4 str2" d="M3289.06 603.5c23.5,-83.5 -16.35,-171.81 -94.5,-209.45 -78.15,-37.63 -172.04,-13.72 -222.67,56.7"/>
  <path class="fil4 str2" d="M3205.55 900.31c-11.07,39.35 2.92,81.47 35.33,106.38"/>
  <path class="fil4 str2" d="M2502.81 343.69c-15.06,-85.42 -89.28,-147.7 -176.02,-147.7 -86.74,0 -160.96,62.28 -176.02,147.7"/>
  <path class="fil4 str2" d="M2556.36 647.35c6.87,38.96 36.07,70.22 74.48,79.71"/>
  <path class="fil4 str2" d="M2019.25 727.86c40.01,-8.38 70.88,-40.26 77.98,-80.51"/>
  <path class="fil4 str2" d="M2686.71 739.81c39.68,9.81 81.33,-5.52 105.19,-38.7"/>
  <path class="fil4 str2" d="M3884.73 1178.72c57.39,-65.04 59.81,-161.89 5.73,-229.71 -54.08,-67.81 -149.05,-87.01 -225.23,-45.53"/>
  <path class="fil4 str2" d="M3680.7 1409.91c-27.04,30.64 -32.71,74.66 -14.32,111.16"/>
  <path class="fil4 str2" d="M3282.88 1040.18c31.49,26.05 75.67,30.31 111.56,10.77"/>
  <path class="fil4 str2" d="M4171.82 1955.42c79.93,-33.69 124.13,-119.91 104.83,-204.47 -19.3,-84.56 -96.53,-143.06 -183.16,-138.74"/>
  <path class="fil4 str2" d="M3887.69 2075.19c-37.66,15.88 -61.87,53.08 -61.14,93.94"/>
  <path class="fil4 str2" d="M3689.68 1569.47c17.08,37.14 55.03,60.15 95.85,58.11"/>
  <path class="fil4 str2" d="M4093.49 2779.77c86.63,4.33 163.86,-54.17 183.16,-138.74 19.3,-84.56 -24.9,-170.78 -104.83,-204.47"/>
  <path class="fil4 str2" d="M3785.53 2764.4c-40.82,-2.03 -78.77,20.98 -95.85,58.11"/>
  <path class="fil4 str2" d="M3826.55 2222.85c-0.73,40.87 23.48,78.06 61.14,93.94"/>
  <path class="fil4 str2" d="M3665.23 3488.5c76.18,41.48 171.14,22.29 225.23,-45.53 54.08,-67.81 51.66,-164.67 -5.73,-229.7"/>
  <path class="fil4 str2" d="M3394.44 3341.04c-35.89,-19.55 -80.07,-15.29 -111.56,10.76"/>
  <path class="fil4 str2" d="M3666.38 2870.91c-18.39,36.5 -12.72,80.52 14.32,111.17"/>
  <path class="fil4 str2" d="M2992.84 3965.46c58.07,56.08 146.53,66.28 215.84,24.87 69.3,-41.4 102.25,-124.13 80.39,-201.84"/>
  <path class="fil4 str2" d="M2129.62 1906.66c3.21,110.26 9.17,220.42 17.88,330.38"/>
  <path class="fil4 str2" d="M3240.88 3385.3c-32.41,24.9 -46.4,67.03 -35.33,106.37"/>
  <path class="fil4 str2" d="M2484.39 2316.79c-0.58,-43.43 -1.91,-86.85 -3.99,-130.24"/>
  <path class="fil4 str2" d="M2152.93 2561.5c4.93,-108.15 3.12,-216.51 -5.43,-324.45"/>
  <path class="fil4 str2" d="M2142.58 1257.49c-13.72,198.54 -18.48,397.59 -14.28,596.56"/>
  <path class="fil4 str2" d="M1382.24 967.04c16.2,-12.45 23.2,-33.51 17.66,-53.18"/>
  <path class="fil4 str2" d="M1448.03 3491.67c11.07,-39.34 -2.92,-81.46 -35.32,-106.37"/>
  <path class="fil4 str2" d="M2375.46 1464.53c-49.19,-200.26 -114.65,-396.16 -195.74,-585.75"/>
  <path class="fil4 str2" d="M768.86 3213.27c-57.4,65.03 -59.81,161.89 -5.73,229.7 54.08,67.82 149.05,87.01 225.22,45.53"/>
  <path class="fil4 str2" d="M972.88 2982.08c27.05,-30.65 32.72,-74.67 14.33,-111.17"/>
  <path class="fil4 str2" d="M1370.71 3351.8c-31.5,-26.05 -75.67,-30.31 -111.57,-10.76"/>
  <path class="fil4 str2" d="M481.76 2436.56c-79.92,33.69 -124.12,119.91 -104.82,204.47 19.3,84.57 96.53,143.07 183.16,138.74"/>
  <path class="fil4 str2" d="M765.89 2316.79c37.66,-15.88 61.88,-53.07 61.14,-93.94"/>
  <path class="fil4 str2" d="M963.9 2822.51c-17.07,-37.13 -55.02,-60.14 -95.84,-58.11"/>
  <path class="fil4 str2" d="M560.1 1612.21c-86.63,-4.32 -163.86,54.18 -183.16,138.74 -19.3,84.56 24.9,170.78 104.82,204.47"/>
  <path class="fil4 str2" d="M868.06 1627.58c40.82,2.04 78.77,-20.97 95.84,-58.11"/>
  <path class="fil4 str2" d="M827.03 2169.13c0.74,-40.86 -23.47,-78.06 -61.14,-93.94"/>
  <path class="fil4 str2" d="M988.35 903.48c-76.17,-41.48 -171.14,-22.28 -225.22,45.53 -54.08,67.82 -51.67,164.67 5.73,229.71"/>
  <path class="fil4 str2" d="M1259.14 1050.95c35.9,19.54 80.07,15.28 111.57,-10.77"/>
  <path class="fil4 str2" d="M987.21 1521.07c18.39,-36.5 12.72,-80.52 -14.33,-111.16"/>
  <path class="fil4 str2" d="M1681.7 450.75c-50.64,-70.42 -144.53,-94.33 -222.67,-56.7 -78.15,37.64 -118,125.95 -94.51,209.45"/>
  <path class="fil4 str2" d="M1861.69 701.11c23.86,33.18 65.51,48.51 105.19,38.7"/>
  <path class="fil4 str2" d="M1412.71 1006.69c32.4,-24.91 46.39,-67.03 35.32,-106.38"/>
  <path class="fil4 str2" d="M1412.71 1006.69c-14.2,10.91 -28.2,22.08 -42,33.49"/>
  <path class="fil4 str2" d="M987.21 1521.07c-8.06,15.99 -15.83,32.13 -23.31,48.4"/>
  <path class="fil4 str2" d="M827.03 2169.13c-0.32,17.91 -0.32,35.82 0,53.72"/>
  <path class="fil4 str2" d="M963.9 2822.51c7.48,16.27 15.25,32.41 23.31,48.4"/>
  <path class="fil4 str2" d="M1370.71 3351.8c13.8,11.42 27.8,22.59 42,33.5"/>
  <path class="fil4 str3" d="M2050.09 864.76c-26.89,61.9 -32.44,131 -15.75,196.4"/>
  <path class="fil4 str3" d="M1822.07 779.02c2.44,51.06 9.93,101.75 22.35,151.33"/>
  <path class="fil4 str2" d="M3240.88 3385.3c14.2,-10.91 28.2,-22.08 42,-33.5"/>
  <path class="fil4 str2" d="M3666.38 2870.91c8.05,-15.99 15.82,-32.13 23.3,-48.4"/>
  <path class="fil4 str2" d="M3826.55 2222.85c0.32,-17.9 0.32,-35.81 0,-53.71"/>
  <path class="fil4 str2" d="M3689.68 1569.47c-7.48,-16.27 -15.25,-32.41 -23.3,-48.4"/>
  <path class="fil4 str2" d="M3282.88 1040.18c-13.8,-11.41 -27.8,-22.58 -42,-33.49"/>
  <path class="fil4 str2" d="M2483.73 2454.35c-2.37,103.54 2.13,207.12 13.49,310.05"/>
  <path class="fil4 str2" d="M2886.25 1006.69c-235.23,59.27 -426.23,230.48 -510.79,457.84"/>
  <path class="fil4 str2" d="M1681.81 3940.81c270.57,-384.92 431.83,-835.94 466.67,-1305.15"/>
  <path class="fil4 str2" d="M2179.72 878.78c-14.21,111.7 -25.56,223.74 -34.05,336.02"/>
  <path class="fil4 str3" d="M3424.17 2524.17c-98.32,-119.43 -259.68,-166.61 -406.85,-118.94"/>
  <path class="fil4 str2" d="M2886.25 1006.69c-254.61,81.94 -442.29,299 -486.59,562.78"/>
  <path class="fil4 str2" d="M3424.17 1822.77c-157.01,-92.93 -344.51,-119.69 -521.24,-74.38 -176.74,45.31 -328.23,158.97 -421.17,315.98"/>
  <path class="fil4 str2" d="M3424.17 1822.77c-172.93,-77.09 -369.4,-82.32 -546.19,-14.56 -176.79,67.77 -319.42,203 -396.51,375.93"/>
  <path class="fil4 str2" d="M2152.93 2561.5c-184.86,-304.51 -556.63,-439.47 -893.79,-324.46"/>
  <path class="fil4 str2" d="M2148.48 2635.66c-203.74,-282.46 -542.91,-434.48 -889.34,-398.62"/>
  <path class="fil4 str2" d="M2128.3 1854.05c-154.57,-270.45 -446.28,-432.98 -757.59,-422.12"/>
  <path class="fil4 str2" d="M2129.62 1906.66c-170.38,-262.62 -448.22,-436.41 -758.91,-474.73"/>
  <path class="fil4 str2" d="M2145.67 1214.8c-78.87,-153.93 -218.44,-267.93 -385.01,-314.49"/>
  <path class="fil4 str2" d="M2142.58 1257.49c-86.87,-156.03 -220.43,-280.94 -381.92,-357.18"/>
  <path class="fil4 str3" d="M3061.71 2139.18c-21.03,-79.12 -72.63,-146.65 -143.45,-187.73 -70.82,-41.08 -155.05,-52.34 -234.18,-31.31"/>
  <path class="fil4 str3" d="M2969.26 1734.82c83,-45.46 144.58,-121.98 171.24,-212.77"/>
  <path class="fil4 str3" d="M2663.61 1862.49c99.66,-88.36 108.83,-240.78 20.47,-340.44"/>
  <path class="fil4 str3" d="M2855.06 1556.33c-19.46,-78.86 -69.44,-146.75 -138.95,-188.75 -69.52,-42 -152.87,-54.67 -231.72,-35.21"/>
  <path class="fil4 str3" d="M2920.61 1178.72c-100.94,-46.31 -217.05,-46.31 -317.99,0"/>
  <path class="fil4 str3" d="M2630.84 1126.76c27.31,-72.23 39.36,-149.33 35.39,-226.44"/>
  <path class="fil4 str3" d="M2463.49 1297.32c7.17,-95.85 -6.83,-192.11 -41.01,-281.95"/>
  <path class="fil4 str3" d="M1890.8 1214.8c-22.31,139.41 -5.6,282.28 48.27,412.78"/>
  <path class="fil4 str3" d="M1481.9 1178.72c10.39,94.67 39.52,186.32 85.69,269.62"/>
  <path class="fil4 str3" d="M1652.63 1507.19c-120.72,7.89 -236.77,49.61 -334.88,120.39"/>
  <path class="fil4 str3" d="M1953.88 1699.71c-166.08,-9.4 -327.5,56.8 -439.14,180.11"/>
  <path class="fil4 str3" d="M1978.58 2454.35c-99.08,-50.99 -214.36,-60.54 -320.48,-26.54 -106.13,34 -194.4,108.77 -245.39,207.85"/>
  <path class="fil4 str3" d="M1481.9 2239.62c-128.89,12.47 -245.65,81.38 -318.87,188.19"/>
  <path class="fil4 str3" d="M1259.14 1879.82c15.64,120.97 69.43,233.8 153.57,322.11"/>
  <path class="fil4 str3" d="M1691.04 1879.82c-43.6,124.84 -15.99,263.51 72.11,362.13"/>
  <path class="fil4 str3" d="M2034.34 1999.7c-52.02,113.54 -71.33,239.34 -55.76,363.25"/>
  <path class="fil4 str3" d="M1890.8 976.46c-63.45,-12.45 -129.26,-1.72 -185.48,30.23"/>
  <path class="fil4 str3" d="M2034.34 1105.09c-94.7,-18.74 -192.96,0.42 -273.68,53.36"/>
  <path class="fil4 str3" d="M2761.38 2483.65c75.63,-97.87 109.32,-221.77 93.68,-344.46"/>
  <path class="fil4 str3" d="M3140.5 2323.22c98.34,-44.59 166.06,-137.53 178.37,-244.81"/>
  <path class="fil4 str2" d="M2511.45 2870.91c62.9,400.4 228.78,777.58 481.39,1094.55"/>
  <path class="fil4 str2" d="M2483.73 2454.35c1.05,-45.84 1.27,-91.69 0.66,-137.54"/>
  <path class="fil4 str2" d="M1382.24 967.04c-14.67,11.28 -29.14,22.82 -43.4,34.61"/>
  <path class="fil4 str2" d="M1283.06 1007.04c17.94,9.77 40.03,7.64 55.78,-5.39"/>
  <path class="fil4 str2" d="M1012.26 859.57c-97.48,-53.09 -219.01,-28.52 -288.22,58.27 -69.21,86.78 -66.12,210.73 7.33,293.96"/>
  <path class="fil4 str2" d="M942.56 1498.57c9.19,-18.25 6.36,-40.26 -7.17,-55.58"/>
  <path class="fil4 str2" d="M942.56 1498.57c-8.33,16.53 -16.36,33.2 -24.09,50.02"/>
  <path class="fil4 str2" d="M870.55 1577.64c20.41,1.02 39.39,-10.49 47.92,-29.05"/>
  <path class="fil4 str2" d="M562.59 1562.27c-110.86,-5.53 -209.7,69.33 -234.4,177.55 -24.7,108.22 31.86,218.56 134.15,261.68"/>
  <path class="fil4 str2" d="M777.04 2168.24c0.37,-20.44 -11.74,-39.04 -30.57,-46.97"/>
  <path class="fil4 str2" d="M777.04 2168.24c-0.33,18.5 -0.33,37.01 0,55.51"/>
  <path class="fil4 str2" d="M746.47 2270.72c18.83,-7.94 30.94,-26.54 30.57,-46.97"/>
  <path class="fil4 str2" d="M462.34 2390.49c-102.29,43.11 -158.85,153.45 -134.15,261.67 24.7,108.22 123.54,183.09 234.4,177.55"/>
  <path class="fil4 str2" d="M918.47 2843.4c-8.53,-18.57 -27.51,-30.08 -47.92,-29.06"/>
  <path class="fil4 str2" d="M918.47 2843.4c7.73,16.81 15.76,33.48 24.09,50.01"/>
  <path class="fil4 str2" d="M935.39 2948.99c13.53,-15.32 16.36,-37.33 7.17,-55.58"/>
  <path class="fil4 str2" d="M731.37 3180.18c-73.45,83.23 -76.54,207.18 -7.33,293.97 69.21,86.78 190.74,111.35 288.22,58.26"/>
  <path class="fil4 str2" d="M1338.84 3390.33c-15.75,-13.02 -37.84,-15.16 -55.78,-5.38"/>
  <path class="fil4 str2" d="M1338.84 3390.33c14.26,11.8 28.73,23.33 43.4,34.61"/>
  <path class="fil4 str2" d="M1399.9 3478.13c5.54,-19.67 -1.46,-40.73 -17.66,-53.19"/>
  <path class="fil4 str2" d="M1316.44 3774.76c-31.01,107.22 20.01,221.16 120.66,269.42 100.65,48.26 221.43,16.7 285.62,-74.61"/>
 </g>
</svg>
